<svg
  xmlns="http://www.w3.org/2000/svg"
  viewBox="0 0 90.5 80.5"
  width="180"
  height="160"
  preserveAspectRatio="xMidYMid meet"
  style="display:block;margin:auto"
>
  <style>
    .petal-light { opacity: 0.4; fill: #D06197; }
    .petal { fill: #D06197; }
  </style>

  <g>
    <path
      class="petal-light"
      d="M58.6,32.2c-2.7,1.5-5.1,3.4-7.3,5.5c-2,1.8-3.8,3.9-5.4,6.1
         c-1.6-2.3-3.4-4.4-5.5-6.2c-2.2-2.1-4.6-3.9-7.2-5.4
         c2-8.6,6.3-16.1,11.7-20.9c0.5-0.4,1.3-0.4,1.8,0
         C52.3,16,56.6,23.6,58.6,32.2z"
    />
    <path
      class="petal"
      d="M80.9,31.3c0,3.4-0.9,15.3-10.8,24.2
         c-10.2,9.9-20.3,9.8-24.2,9.8s-14,0.1-24.2-9.8
         c-9.9-8.9-10.8-20.8-10.8-24.2
         c0-0.5,0.4-0.9,0.9-0.9
         c3.5,0,16.4,0.7,26,10.1
         c4,3.6,6.5,7.7,8.1,11.5
         c1.6-3.8,4-7.9,8.1-11.5
         c9.6-9.3,22.4-10.1,26-10.1
         c0.5,0,0.9,0.4,0.9,0.9z"
    />
  </g>
</svg>
