<?xml version="1.0" encoding="utf-8"?>
<!-- Generator: Adobe Illustrator 24.0.0, SVG Export Plug-In . SVG Version: 6.00 Build 0)  -->
<svg version="1.1" id="Laag_1" focusable="false" xmlns="http://www.w3.org/2000/svg" xmlns:xlink="http://www.w3.org/1999/xlink"
	 x="0px" y="0px" viewBox="0 0 495.5 80.5" style="enable-background:new 0 0 495.5 80.5;" xml:space="preserve">
<style type="text/css">
	.st0{opacity:0.4;fill:#D06197;enable-background:new    ;}
	.st1{fill:#D06197;}
	.st2{fill:#514D4F;}
</style>
<g>
	<path class="st0" d="M58.6,32.2c-2.7,1.5-5.1,3.4-7.3,5.5c-2,1.8-3.8,3.9-5.4,6.1c-1.6-2.3-3.4-4.4-5.5-6.2
		c-2.2-2.1-4.6-3.9-7.2-5.4c2-8.6,6.3-16.1,11.7-20.9c0.5-0.4,1.3-0.4,1.8,0C52.3,16,56.6,23.6,58.6,32.2L58.6,32.2z"/>
	<path class="st1" d="M80.9,31.3c0,3.4-0.9,15.3-10.8,24.2c-10.2,9.9-20.3,9.8-24.2,9.8s-14,0.1-24.2-9.8
		c-9.9-8.9-10.8-20.8-10.8-24.2c0-0.5,0.4-0.9,0.9-0.9c0,0,0,0,0,0c3.5,0,16.4,0.7,26,10.1c4,3.6,6.5,7.7,8.1,11.5
		c1.6-3.8,4-7.9,8.1-11.5c9.6-9.3,22.4-10.1,26-10.1C80.4,30.3,80.8,30.7,80.9,31.3C80.9,31.3,80.9,31.3,80.9,31.3L80.9,31.3z"/>
</g>
<g>
	<path class="st2" d="M122,62.2c0.2,0.2,0.3,0.4,0.3,0.6c0,0.3-0.1,0.5-0.3,0.7c-0.2,0.2-0.4,0.3-0.6,0.3h-17
		c-0.3,0-0.5-0.1-0.7-0.3c-0.2-0.2-0.3-0.4-0.3-0.6V32.3c0-0.2,0.1-0.5,0.3-0.6c0.2-0.2,0.4-0.3,0.7-0.3c0.3,0,0.5,0.1,0.7,0.3
		c0.2,0.2,0.3,0.4,0.3,0.6v29.6h16C121.6,61.9,121.8,62,122,62.2z"/>
	<path class="st2" d="M146.4,40.9c0.2,0.2,0.3,0.4,0.3,0.6v21.3c0,0.2-0.1,0.5-0.3,0.6c-0.2,0.2-0.4,0.3-0.6,0.3
		c-0.3,0-0.5-0.1-0.7-0.3c-0.2-0.2-0.3-0.4-0.3-0.6v-4.2c-0.8,1.6-2,2.9-3.6,4c-1.6,1.1-3.4,1.6-5.3,1.6c-2,0-3.9-0.5-5.5-1.6
		c-1.6-1.1-2.9-2.5-3.8-4.4c-0.9-1.9-1.4-4-1.4-6.3c0-2.3,0.5-4.3,1.4-6.2c0.9-1.8,2.2-3.3,3.9-4.3c1.6-1,3.5-1.6,5.5-1.6
		c2,0,3.8,0.5,5.4,1.6c1.6,1,2.8,2.5,3.5,4.2v-4.1c0-0.2,0.1-0.5,0.3-0.6c0.2-0.2,0.4-0.3,0.7-0.3C146,40.7,146.2,40.8,146.4,40.9z
		 M140.6,61.1c1.4-0.9,2.4-2.2,3.2-3.8c0.8-1.6,1.2-3.4,1.2-5.4c0-1.9-0.4-3.6-1.2-5.2c-0.8-1.6-1.8-2.8-3.2-3.7
		c-1.4-0.9-2.9-1.4-4.6-1.4c-1.7,0-3.2,0.4-4.6,1.3c-1.4,0.9-2.4,2.1-3.2,3.7c-0.8,1.6-1.2,3.3-1.2,5.3c0,2,0.4,3.8,1.2,5.4
		c0.8,1.6,1.8,2.9,3.2,3.8c1.4,0.9,2.9,1.4,4.6,1.4C137.7,62.5,139.2,62,140.6,61.1z"/>
	<path class="st2" d="M173.9,29.8c0.2,0.2,0.3,0.4,0.3,0.6v32.4c0,0.2-0.1,0.5-0.3,0.6c-0.2,0.2-0.4,0.3-0.6,0.3
		c-0.3,0-0.5-0.1-0.7-0.3c-0.2-0.2-0.3-0.4-0.3-0.6v-4.4c-0.7,1.6-1.9,3-3.5,4.1c-1.6,1.1-3.4,1.7-5.4,1.7c-2,0-3.8-0.5-5.5-1.6
		c-1.6-1.1-2.9-2.5-3.9-4.4c-0.9-1.9-1.4-3.9-1.4-6.2c0-2.3,0.5-4.4,1.4-6.2c0.9-1.9,2.2-3.3,3.9-4.4c1.6-1,3.5-1.6,5.5-1.6
		c1.9,0,3.7,0.5,5.3,1.6c1.6,1.1,2.8,2.5,3.6,4.2V30.4c0-0.2,0.1-0.5,0.3-0.6c0.2-0.2,0.4-0.3,0.7-0.3
		C173.5,29.5,173.8,29.6,173.9,29.8z M168.2,61.1c1.4-0.9,2.4-2.1,3.2-3.7c0.8-1.6,1.2-3.4,1.2-5.3c0-2-0.4-3.7-1.2-5.3
		c-0.8-1.6-1.8-2.8-3.2-3.7c-1.4-0.9-2.9-1.3-4.6-1.3c-1.7,0-3.2,0.4-4.6,1.3c-1.4,0.9-2.5,2.1-3.2,3.7c-0.8,1.6-1.2,3.4-1.2,5.3
		c0,2,0.4,3.8,1.2,5.3c0.8,1.6,1.9,2.8,3.2,3.7c1.4,0.9,2.9,1.4,4.6,1.4C165.3,62.5,166.8,62,168.2,61.1z"/>
	<path class="st2" d="M199.9,40.2c0.2,0.2,0.3,0.4,0.3,0.6v20.6c0,2.3-0.5,4.3-1.4,6.1c-0.9,1.7-2.2,3.1-3.9,4
		c-1.7,0.9-3.5,1.4-5.6,1.4c-1.4,0-2.6-0.2-3.7-0.5c-1.1-0.3-2.1-0.7-2.8-1.3c-0.6-0.4-0.7-0.8-0.5-1.2c0.2-0.4,0.5-0.6,0.8-0.6
		c0.2,0,0.3,0,0.4,0.1c0.7,0.5,1.6,0.9,2.7,1.2c1,0.4,2.1,0.5,3.3,0.5c1.8,0,3.3-0.4,4.7-1.3c1.4-0.8,2.4-2,3.2-3.5
		c0.8-1.5,1.1-3.2,1.1-5.1v-2.1c-0.7,1.4-1.8,2.5-3.4,3.4c-1.6,0.9-3.2,1.4-4.8,1.4c-2.8,0-4.8-0.8-6.2-2.4c-1.4-1.6-2-3.8-2-6.6
		V40.9c0-0.2,0.1-0.5,0.3-0.6c0.2-0.2,0.4-0.3,0.7-0.3c0.3,0,0.5,0.1,0.7,0.3c0.2,0.2,0.3,0.4,0.3,0.6v14.4c0,4.8,2.1,7.2,6.4,7.2
		c1.3,0,2.6-0.3,3.9-1c1.3-0.7,2.3-1.6,3.1-2.7c0.8-1.1,1.2-2.3,1.2-3.4V40.9c0-0.2,0.1-0.5,0.3-0.6c0.2-0.2,0.4-0.3,0.7-0.3
		C199.6,39.9,199.8,40,199.9,40.2z"/>
	<path class="st2" d="M223.5,63.1c-1.7-0.8-3.4-2-5-3.7c-0.2-0.2-0.3-0.4-0.3-0.7c0-0.2,0.1-0.5,0.3-0.7s0.4-0.3,0.7-0.3
		c0.3,0,0.5,0.1,0.8,0.4c1.2,1.4,2.6,2.5,4.3,3.2c1.7,0.7,3.4,1.1,5.2,1.1c2.4,0,4.3-0.6,5.9-1.7c1.5-1.1,2.3-2.7,2.3-4.5
		c0-1.5-0.4-2.7-1.2-3.7c-0.8-1-1.7-1.7-2.8-2.3s-2.7-1.2-4.6-1.9c-2.1-0.8-3.8-1.5-5-2.1c-1.2-0.6-2.2-1.5-3.1-2.6
		c-0.8-1.1-1.3-2.6-1.3-4.5c0-1.5,0.4-2.9,1.2-4.1c0.8-1.2,2-2.2,3.6-2.9c1.5-0.7,3.3-1.1,5.4-1.1c1.8,0,3.5,0.3,5.2,1
		c1.6,0.7,2.9,1.6,3.9,2.8c0.3,0.4,0.5,0.8,0.5,1c0,0.2-0.1,0.5-0.3,0.7c-0.2,0.2-0.5,0.3-0.8,0.3c-0.2,0-0.4-0.1-0.6-0.3
		c-0.9-1.1-2-2-3.3-2.6s-2.9-1-4.5-1c-2.3,0-4.3,0.6-5.9,1.7c-1.6,1.1-2.3,2.6-2.3,4.5c0,1.3,0.4,2.5,1.1,3.4
		c0.8,0.9,1.7,1.7,2.8,2.2c1.1,0.6,2.6,1.2,4.3,1.8c2.2,0.8,3.9,1.5,5.1,2.1s2.3,1.6,3.2,2.8c0.9,1.2,1.3,2.9,1.3,4.9
		c0,1.4-0.4,2.7-1.2,4c-0.8,1.2-2,2.2-3.6,2.9c-1.6,0.7-3.3,1.1-5.3,1.1C227.2,64.2,225.2,63.8,223.5,63.1z"/>
	<path class="st2" d="M262.1,41.9c1.6,1,2.9,2.4,3.8,4.2c0.9,1.8,1.4,3.8,1.4,6.1c0,2.2-0.5,4.2-1.4,6c-0.9,1.8-2.2,3.2-3.9,4.3
		s-3.5,1.6-5.5,1.6c-1.9,0-3.5-0.5-5.1-1.4c-1.5-0.9-2.8-2.2-3.8-3.9v13.4c0,0.2-0.1,0.5-0.3,0.6c-0.2,0.2-0.4,0.3-0.7,0.3
		c-0.2,0-0.5-0.1-0.6-0.3c-0.2-0.2-0.3-0.4-0.3-0.6V41.3c0-0.2,0.1-0.5,0.3-0.6c0.2-0.2,0.4-0.3,0.7-0.3c0.3,0,0.5,0.1,0.7,0.3
		c0.2,0.2,0.3,0.4,0.3,0.6v4.3c0.9-1.8,2.2-3.1,3.7-3.9c1.5-0.8,3.3-1.3,5.2-1.3C258.6,40.4,260.5,40.9,262.1,41.9z M261.1,61
		c1.4-0.9,2.4-2.1,3.2-3.6c0.8-1.5,1.2-3.3,1.2-5.2c0-1.9-0.4-3.6-1.2-5.2c-0.8-1.5-1.9-2.7-3.2-3.6c-1.4-0.9-2.9-1.3-4.6-1.3
		c-1.7,0-3.3,0.4-4.7,1.3c-1.4,0.8-2.4,2-3.2,3.6c-0.8,1.5-1.1,3.3-1.1,5.2c0,1.9,0.4,3.7,1.1,5.2c0.8,1.5,1.8,2.7,3.2,3.6
		c1.4,0.9,2.9,1.3,4.7,1.3C258.2,62.3,259.7,61.9,261.1,61z"/>
	<path class="st2" d="M293,40.9c0.2,0.2,0.3,0.4,0.3,0.6v21.3c0,0.2-0.1,0.5-0.3,0.6c-0.2,0.2-0.4,0.3-0.6,0.3
		c-0.3,0-0.5-0.1-0.7-0.3c-0.2-0.2-0.3-0.4-0.3-0.6v-4.2c-0.8,1.6-2,2.9-3.6,4c-1.6,1.1-3.4,1.6-5.3,1.6c-2,0-3.9-0.5-5.5-1.6
		c-1.6-1.1-2.9-2.5-3.8-4.4c-0.9-1.9-1.4-4-1.4-6.3c0-2.3,0.5-4.3,1.4-6.2c0.9-1.8,2.2-3.3,3.9-4.3c1.6-1,3.5-1.6,5.5-1.6
		c2,0,3.8,0.5,5.4,1.6c1.6,1,2.8,2.5,3.5,4.2v-4.1c0-0.2,0.1-0.5,0.3-0.6c0.2-0.2,0.4-0.3,0.7-0.3C292.6,40.7,292.8,40.8,293,40.9z
		 M287.2,61.1c1.4-0.9,2.4-2.2,3.2-3.8c0.8-1.6,1.2-3.4,1.2-5.4c0-1.9-0.4-3.6-1.2-5.2c-0.8-1.6-1.8-2.8-3.2-3.7
		c-1.4-0.9-2.9-1.4-4.6-1.4c-1.7,0-3.2,0.4-4.6,1.3c-1.4,0.9-2.4,2.1-3.2,3.7c-0.8,1.6-1.2,3.3-1.2,5.3c0,2,0.4,3.8,1.2,5.4
		c0.8,1.6,1.8,2.9,3.2,3.8c1.4,0.9,2.9,1.4,4.6,1.4C284.3,62.5,285.8,62,287.2,61.1z"/>
	<path class="st2" d="M338.7,63c0,0.3-0.1,0.6-0.3,0.7c-0.2,0.2-0.5,0.2-0.7,0.2c-0.2,0-0.5-0.1-0.6-0.3l-13.9-17.2l-6.9,6.4v9.9
		c0,0.3-0.1,0.5-0.3,0.7c-0.2,0.2-0.4,0.3-0.6,0.3c-0.3,0-0.5-0.1-0.7-0.3c-0.2-0.2-0.3-0.4-0.3-0.7V32.3c0-0.3,0.1-0.5,0.3-0.7
		c0.2-0.2,0.4-0.3,0.7-0.3c0.3,0,0.5,0.1,0.7,0.3c0.2,0.2,0.3,0.4,0.3,0.7v18.2l20-18.8c0.2-0.2,0.4-0.3,0.6-0.3
		c0.2,0,0.5,0.1,0.6,0.3c0.2,0.2,0.3,0.4,0.3,0.6c0,0.2-0.1,0.5-0.3,0.6l-12.8,11.9l13.8,17.3C338.6,62.6,338.7,62.8,338.7,63z"/>
	<path class="st2" d="M364.6,40.9c0.2,0.2,0.3,0.4,0.3,0.6v21.3c0,0.2-0.1,0.5-0.3,0.6c-0.2,0.2-0.4,0.3-0.6,0.3
		c-0.3,0-0.5-0.1-0.7-0.3c-0.2-0.2-0.3-0.4-0.3-0.6v-4.2c-0.8,1.6-2,2.9-3.6,4c-1.6,1.1-3.4,1.6-5.3,1.6c-2,0-3.9-0.5-5.5-1.6
		c-1.6-1.1-2.9-2.5-3.8-4.4c-0.9-1.9-1.4-4-1.4-6.3c0-2.3,0.5-4.3,1.4-6.2c0.9-1.8,2.2-3.3,3.9-4.3c1.6-1,3.5-1.6,5.5-1.6
		c2,0,3.8,0.5,5.4,1.6c1.6,1,2.8,2.5,3.5,4.2v-4.1c0-0.2,0.1-0.5,0.3-0.6c0.2-0.2,0.4-0.3,0.7-0.3C364.2,40.7,364.5,40.8,364.6,40.9
		z M358.8,61.1c1.4-0.9,2.4-2.2,3.2-3.8c0.8-1.6,1.2-3.4,1.2-5.4c0-1.9-0.4-3.6-1.2-5.2c-0.8-1.6-1.8-2.8-3.2-3.7
		c-1.4-0.9-2.9-1.4-4.6-1.4c-1.7,0-3.2,0.4-4.6,1.3c-1.4,0.9-2.4,2.1-3.2,3.7c-0.8,1.6-1.2,3.3-1.2,5.3c0,2,0.4,3.8,1.2,5.4
		c0.8,1.6,1.8,2.9,3.2,3.8c1.4,0.9,2.9,1.4,4.6,1.4C355.9,62.5,357.5,62,358.8,61.1z"/>
	<path class="st2" d="M374.4,63.5c-0.2,0.2-0.4,0.3-0.6,0.3c-0.3,0-0.5-0.1-0.7-0.3c-0.2-0.2-0.3-0.4-0.3-0.6V30.4
		c0-0.2,0.1-0.5,0.3-0.6c0.2-0.2,0.4-0.3,0.6-0.3c0.3,0,0.5,0.1,0.7,0.3c0.2,0.2,0.3,0.4,0.3,0.6v32.4
		C374.6,63.1,374.6,63.3,374.4,63.5z"/>
	<path class="st2" d="M399.9,40.2c0.2,0.2,0.3,0.4,0.3,0.6v20.6c0,2.3-0.5,4.3-1.4,6.1c-0.9,1.7-2.2,3.1-3.9,4
		c-1.7,0.9-3.5,1.4-5.6,1.4c-1.4,0-2.6-0.2-3.7-0.5c-1.1-0.3-2.1-0.7-2.8-1.3c-0.6-0.4-0.7-0.8-0.5-1.2c0.2-0.4,0.5-0.6,0.8-0.6
		c0.2,0,0.3,0,0.4,0.1c0.7,0.5,1.6,0.9,2.7,1.2c1,0.4,2.1,0.5,3.3,0.5c1.8,0,3.3-0.4,4.7-1.3c1.4-0.8,2.4-2,3.2-3.5
		c0.8-1.5,1.1-3.2,1.1-5.1v-2.1c-0.7,1.4-1.8,2.5-3.4,3.4c-1.6,0.9-3.2,1.4-4.8,1.4c-2.8,0-4.8-0.8-6.2-2.4c-1.4-1.6-2-3.8-2-6.6
		V40.9c0-0.2,0.1-0.5,0.3-0.6c0.2-0.2,0.4-0.3,0.7-0.3c0.3,0,0.5,0.1,0.7,0.3c0.2,0.2,0.3,0.4,0.3,0.6v14.4c0,4.8,2.1,7.2,6.4,7.2
		c1.3,0,2.6-0.3,3.9-1c1.3-0.7,2.3-1.6,3.1-2.7c0.8-1.1,1.2-2.3,1.2-3.4V40.9c0-0.2,0.1-0.5,0.3-0.6c0.2-0.2,0.4-0.3,0.7-0.3
		C399.6,39.9,399.8,40,399.9,40.2z"/>
	<path class="st2" d="M429.3,40.9c0.2,0.2,0.3,0.4,0.3,0.6v21.3c0,0.2-0.1,0.5-0.3,0.6c-0.2,0.2-0.4,0.3-0.6,0.3
		c-0.3,0-0.5-0.1-0.7-0.3c-0.2-0.2-0.3-0.4-0.3-0.6v-4.2c-0.8,1.6-2,2.9-3.6,4c-1.6,1.1-3.4,1.6-5.3,1.6c-2,0-3.9-0.5-5.5-1.6
		c-1.6-1.1-2.9-2.5-3.8-4.4c-0.9-1.9-1.4-4-1.4-6.3c0-2.3,0.5-4.3,1.4-6.2c0.9-1.8,2.2-3.3,3.9-4.3c1.6-1,3.5-1.6,5.5-1.6
		c2,0,3.8,0.5,5.4,1.6c1.6,1,2.8,2.5,3.5,4.2v-4.1c0-0.2,0.1-0.5,0.3-0.6c0.2-0.2,0.4-0.3,0.7-0.3C429,40.7,429.2,40.8,429.3,40.9z
		 M423.6,61.1c1.4-0.9,2.4-2.2,3.2-3.8c0.8-1.6,1.2-3.4,1.2-5.4c0-1.9-0.4-3.6-1.2-5.2c-0.8-1.6-1.8-2.8-3.2-3.7
		c-1.4-0.9-2.9-1.4-4.6-1.4c-1.7,0-3.2,0.4-4.6,1.3c-1.4,0.9-2.4,2.1-3.2,3.7c-0.8,1.6-1.2,3.3-1.2,5.3c0,2,0.4,3.8,1.2,5.4
		c0.8,1.6,1.8,2.9,3.2,3.8c1.4,0.9,2.9,1.4,4.6,1.4C420.6,62.5,422.2,62,423.6,61.1z"/>
	<path class="st2" d="M457.4,40.9c0.2,0.2,0.3,0.4,0.3,0.6v21.3c0,0.2-0.1,0.5-0.3,0.6c-0.2,0.2-0.4,0.3-0.6,0.3
		c-0.3,0-0.5-0.1-0.7-0.3c-0.2-0.2-0.3-0.4-0.3-0.6v-4.2c-0.8,1.6-2,2.9-3.6,4c-1.6,1.1-3.4,1.6-5.3,1.6c-2,0-3.9-0.5-5.5-1.6
		c-1.6-1.1-2.9-2.5-3.8-4.4c-0.9-1.9-1.4-4-1.4-6.3c0-2.3,0.5-4.3,1.4-6.2c0.9-1.8,2.2-3.3,3.9-4.3c1.6-1,3.5-1.6,5.5-1.6
		c2,0,3.8,0.5,5.4,1.6c1.6,1,2.8,2.5,3.5,4.2v-4.1c0-0.2,0.1-0.5,0.3-0.6c0.2-0.2,0.4-0.3,0.7-0.3C457,40.7,457.2,40.8,457.4,40.9z
		 M451.6,61.1c1.4-0.9,2.4-2.2,3.2-3.8c0.8-1.6,1.2-3.4,1.2-5.4c0-1.9-0.4-3.6-1.2-5.2c-0.8-1.6-1.8-2.8-3.2-3.7
		c-1.4-0.9-2.9-1.4-4.6-1.4c-1.7,0-3.2,0.4-4.6,1.3c-1.4,0.9-2.4,2.1-3.2,3.7c-0.8,1.6-1.2,3.3-1.2,5.3c0,2,0.4,3.8,1.2,5.4
		c0.8,1.6,1.8,2.9,3.2,3.8c1.4,0.9,2.9,1.4,4.6,1.4C448.7,62.5,450.2,62,451.6,61.1z"/>
	<path class="st2" d="M482,42.4c1.4,1.6,2.1,3.7,2.1,6.3v14.2c0,0.2-0.1,0.5-0.3,0.6c-0.2,0.2-0.4,0.3-0.6,0.3
		c-0.3,0-0.5-0.1-0.7-0.3c-0.2-0.2-0.3-0.4-0.3-0.6v-14c0-2.1-0.5-3.8-1.6-5.2c-1.1-1.3-2.8-2-5-2c-1.4,0-2.7,0.3-4,1
		c-1.3,0.6-2.4,1.5-3.2,2.6c-0.8,1.1-1.2,2.3-1.2,3.6v14c0,0.2-0.1,0.5-0.3,0.6c-0.2,0.2-0.4,0.3-0.6,0.3c-0.3,0-0.5-0.1-0.7-0.3
		c-0.2-0.2-0.3-0.4-0.3-0.6V41.6c0-0.2,0.1-0.5,0.3-0.6c0.2-0.2,0.4-0.3,0.6-0.3c0.3,0,0.5,0.1,0.7,0.3c0.2,0.2,0.3,0.4,0.3,0.6v3.1
		c0.9-1.4,2.2-2.5,3.8-3.4c1.6-0.9,3.2-1.3,4.9-1.3C478.5,39.9,480.6,40.7,482,42.4z"/>
</g>
</svg>
